<svg width="22" height="22" viewBox="0 0 22 22" fill="none" xmlns="http://www.w3.org/2000/svg">
<path d="M12.8801 11.0002L21.2801 2.61358C21.5312 2.36251 21.6722 2.02198 21.6722 1.66691C21.6722 1.31185 21.5312 0.971319 21.2801 0.720247C21.029 0.469176 20.6885 0.328125 20.3334 0.328125C19.9783 0.328125 19.6378 0.469176 19.3867 0.720247L11.0001 9.12025L2.61341 0.720247C2.36234 0.469176 2.02182 0.328125 1.66675 0.328125C1.31168 0.328125 0.971153 0.469176 0.720081 0.720247C0.46901 0.971319 0.327959 1.31185 0.327959 1.66691C0.327959 2.02198 0.46901 2.36251 0.720081 2.61358L9.12008 11.0002L0.720081 19.3869C0.59511 19.5109 0.495918 19.6583 0.428226 19.8208C0.360535 19.9833 0.325684 20.1576 0.325684 20.3336C0.325684 20.5096 0.360535 20.6839 0.428226 20.8463C0.495918 21.0088 0.59511 21.1563 0.720081 21.2802C0.844032 21.4052 0.9915 21.5044 1.15398 21.5721C1.31646 21.6398 1.49073 21.6746 1.66675 21.6746C1.84276 21.6746 2.01704 21.6398 2.17952 21.5721C2.342 21.5044 2.48946 21.4052 2.61341 21.2802L11.0001 12.8802L19.3867 21.2802C19.5107 21.4052 19.6582 21.5044 19.8206 21.5721C19.9831 21.6398 20.1574 21.6746 20.3334 21.6746C20.5094 21.6746 20.6837 21.6398 20.8462 21.5721C21.0087 21.5044 21.1561 21.4052 21.2801 21.2802C21.4051 21.1563 21.5042 21.0088 21.5719 20.8463C21.6396 20.6839 21.6745 20.5096 21.6745 20.3336C21.6745 20.1576 21.6396 19.9833 21.5719 19.8208C21.5042 19.6583 21.4051 19.5109 21.2801 19.3869L12.8801 11.0002Z" fill="white"/>
</svg>
