<svg width="24" height="24" viewBox="0 0 24 24" fill="none" xmlns="http://www.w3.org/2000/svg">
<path d="M0.75 9.85035C0.75 14.8681 4.87231 18.9507 9.93884 18.9507C11.9424 18.9507 13.7733 18.3121 15.2817 17.2401L20.947 22.8623C21.2119 23.1246 21.5573 23.25 21.9258 23.25C22.7088 23.25 23.25 22.6684 23.25 21.9043C23.25 21.5394 23.1118 21.2087 22.87 20.9692L17.2393 15.3585C18.4253 13.8303 19.1277 11.9259 19.1277 9.85035C19.1277 4.83262 15.0054 0.75 9.93884 0.75C4.87231 0.75 0.75 4.83262 0.75 9.85035ZM2.71904 9.85035C2.71904 5.90459 5.95471 2.70008 9.93884 2.70008C13.923 2.70008 17.1586 5.90459 17.1586 9.85035C17.1586 13.7961 13.923 17.0006 9.93884 17.0006C5.95471 17.0006 2.71904 13.7961 2.71904 9.85035Z" fill="#989898"/>
</svg>
