<svg xmlns="http://www.w3.org/2000/svg"  viewBox="0 0 64 64" width="64px" height="64px"><path fill="#f283a5" d="M45,21c2.154,0,4.499,1.287,6.851,3.278c0.954,0.809,2.349,1.051,3.471,0.495 C56.36,24.259,57,23.234,57,22.072V11.474C57,8.451,54.524,6,51.471,6H13.529C10.476,6,8,8.451,8,11.474v41.053 C8,55.549,10.476,58,13.529,58h37.941C54.524,58,57,55.549,57,52.526V42.077c0-1.078-0.499-2.142-1.424-2.709 c-1.181-0.724-2.622-0.594-3.645,0.285C49.563,41.684,47.179,43,45,43c-5.319,0-11-4.239-11-11S39.681,21,45,21z"/><rect width="5" height="50" x="9" y="7" fill="#fbd"/><path fill="#8d6c9f" d="M51.471,59H13.529C9.929,59,7,56.096,7,52.526V11.474C7,7.904,9.929,5,13.529,5h37.941 C55.071,5,58,7.904,58,11.474v10.599c0,1.536-0.855,2.914-2.233,3.597c-1.444,0.718-3.277,0.461-4.562-0.628 C48.821,23.023,46.733,22,45,22c-4.81,0-10,3.823-10,10s5.19,10,10,10c1.765,0,3.877-1.045,6.279-3.106 c1.354-1.164,3.291-1.315,4.819-0.379C57.271,39.235,58,40.601,58,42.077v10.449C58,56.096,55.071,59,51.471,59z M13.529,7 C11.032,7,9,9.007,9,11.474v41.053C9,54.993,11.032,57,13.529,57h37.941C53.968,57,56,54.993,56,52.526V42.077 c0-0.787-0.363-1.499-0.947-1.858c-0.795-0.486-1.766-0.414-2.471,0.192C49.807,42.793,47.256,44,45,44c-5.771,0-12-4.588-12-12 s6.229-12,12-12c2.251,0,4.703,1.149,7.497,3.516c0.675,0.571,1.653,0.721,2.382,0.361C55.581,23.529,56,22.854,56,22.072V11.474 C56,9.007,53.968,7,51.471,7H13.529z"/><path fill="#8d6c9f" d="M12,55c0,0.6,0.4,1,1,1h2c0.6,0,1-0.4,1-1s-0.4-1-1-1h-2C12.4,54,12,54.4,12,55z M12,50 c0,0.6,0.4,1,1,1h2c0.6,0,1-0.4,1-1s-0.4-1-1-1h-2C12.4,49,12,49.4,12,50z M12,45c0,0.6,0.4,1,1,1h2c0.6,0,1-0.4,1-1s-0.4-1-1-1h-2 C12.4,44,12,44.4,12,45z M12,40c0,0.6,0.4,1,1,1h2c0.6,0,1-0.4,1-1s-0.4-1-1-1h-2C12.4,39,12,39.4,12,40z M12,35c0,0.6,0.4,1,1,1h2 c0.6,0,1-0.4,1-1s-0.4-1-1-1h-2C12.4,34,12,34.4,12,35z M12,29c0,0.6,0.4,1,1,1h2c0.6,0,1-0.4,1-1s-0.4-1-1-1h-2 C12.4,28,12,28.4,12,29z M12,24c0,0.6,0.4,1,1,1h2c0.6,0,1-0.4,1-1s-0.4-1-1-1h-2C12.4,23,12,23.4,12,24z M12,19c0,0.6,0.4,1,1,1h2 c0.6,0,1-0.4,1-1s-0.4-1-1-1h-2C12.4,18,12,18.4,12,19z M12,14c0,0.6,0.4,1,1,1h2c0.6,0,1-0.4,1-1s-0.4-1-1-1h-2 C12.4,13,12,13.4,12,14z M12,9c0,0.6,0.4,1,1,1h2c0.6,0,1-0.4,1-1s-0.4-1-1-1h-2C12.4,8,12,8.4,12,9z"/></svg>