<svg xmlns="http://www.w3.org/2000/svg"  viewBox="0 0 64 64" width="64px" height="64px"><path d="M 13.529297 5 C 9.9292969 5 7 7.9046094 7 11.474609 L 7 52.525391 C 7 56.095391 9.9292969 59 13.529297 59 L 51.470703 59 C 55.070703 59 58 56.095391 58 52.525391 L 58 42.076172 C 58 40.600172 57.270656 39.235625 56.097656 38.515625 C 54.569656 37.580625 52.633297 37.731531 51.279297 38.894531 C 48.877297 40.955531 46.765 42 45 42 C 40.19 42 35 38.177 35 32 C 35 25.823 40.19 22 45 22 C 46.733 22 48.821078 23.023969 51.205078 25.042969 C 52.491078 26.132969 54.323578 26.387922 55.767578 25.669922 C 57.145578 24.986922 58 23.608266 58 22.072266 L 58 11.474609 C 58 7.9046094 55.071703 5 51.470703 5 L 13.529297 5 z M 13.529297 7 L 51.470703 7 C 53.967703 7 56 9.0076094 56 11.474609 L 56 22.072266 C 56 22.854266 55.580906 23.528953 54.878906 23.876953 C 54.149906 24.236953 53.171094 24.087625 52.496094 23.515625 C 49.702094 21.148625 47.251 20 45 20 C 39.229 20 33 24.588 33 32 C 33 39.412 39.229 44 45 44 C 47.256 44 49.807031 42.792156 52.582031 40.410156 C 53.287031 39.804156 54.257734 39.73175 55.052734 40.21875 C 55.636734 40.57775 56 41.289172 56 42.076172 L 56 52.525391 C 56 54.992391 53.968703 57 51.470703 57 L 13.529297 57 C 11.032297 57 9 54.993344 9 52.527344 L 9 11.474609 C 9 9.0076094 11.032297 7 13.529297 7 z M 13 8 C 12.4 8 12 8.4 12 9 C 12 9.6 12.4 10 13 10 L 15 10 C 15.6 10 16 9.6 16 9 C 16 8.4 15.6 8 15 8 L 13 8 z M 13 13 C 12.4 13 12 13.4 12 14 C 12 14.6 12.4 15 13 15 L 15 15 C 15.6 15 16 14.6 16 14 C 16 13.4 15.6 13 15 13 L 13 13 z M 13 18 C 12.4 18 12 18.4 12 19 C 12 19.6 12.4 20 13 20 L 15 20 C 15.6 20 16 19.6 16 19 C 16 18.4 15.6 18 15 18 L 13 18 z M 13 23 C 12.4 23 12 23.4 12 24 C 12 24.6 12.4 25 13 25 L 15 25 C 15.6 25 16 24.6 16 24 C 16 23.4 15.6 23 15 23 L 13 23 z M 13 28 C 12.4 28 12 28.4 12 29 C 12 29.6 12.4 30 13 30 L 15 30 C 15.6 30 16 29.6 16 29 C 16 28.4 15.6 28 15 28 L 13 28 z M 13 34 C 12.4 34 12 34.4 12 35 C 12 35.6 12.4 36 13 36 L 15 36 C 15.6 36 16 35.6 16 35 C 16 34.4 15.6 34 15 34 L 13 34 z M 13 39 C 12.4 39 12 39.4 12 40 C 12 40.6 12.4 41 13 41 L 15 41 C 15.6 41 16 40.6 16 40 C 16 39.4 15.6 39 15 39 L 13 39 z M 13 44 C 12.4 44 12 44.4 12 45 C 12 45.6 12.4 46 13 46 L 15 46 C 15.6 46 16 45.6 16 45 C 16 44.4 15.6 44 15 44 L 13 44 z M 13 49 C 12.4 49 12 49.4 12 50 C 12 50.6 12.4 51 13 51 L 15 51 C 15.6 51 16 50.6 16 50 C 16 49.4 15.6 49 15 49 L 13 49 z M 13 54 C 12.4 54 12 54.4 12 55 C 12 55.6 12.4 56 13 56 L 15 56 C 15.6 56 16 55.6 16 55 C 16 54.4 15.6 54 15 54 L 13 54 z"/></svg>